PathFileType	4	(X/Y/Z)	C:\Users\°ÂÌØÂü\Desktop\20210112\bx_y_10_902-Unnamed.trc
DataRate	CameraRate	NumFrames	NumMarkers	Units	OrigDataRate	OrigDataStartFrame	OrigNumFrames
50.00	50.00	       5	0	mm	50.00	1	       516
Frame#	Time	
		

1	0.000	-595.54425	2.46531	1047.54053	-641.80225	288.13437	874.42987	-588.06390	220.34058	813.56177	-725.40302	256.51120	643.55353	-695.12640	146.95793	574.62592	-672.55267	23.60539	519.64026	-730.51349	251.15111	576.32660	-772.15198	260.43048	502.45920	-678.35046	208.28026	532.76691	-695.05219	119.46088	258.27722	-662.63477	-66.82108	163.86490	-713.09882	152.87804	216.92781	-771.26953	224.02126	204.25546	-622.16577	-77.96066	159.50305	-882.66003	296.11053	144.51537	-675.02625	56.82306	156.44662	-602.69525	20.15709	165.68552	-560.14355	-41.45081	163.64833	-675.67017	171.50876	157.20848	-594.91089	221.53574	173.43645	-666.17847	298.33691	160.68907	-628.43823	305.84119	161.84111	-560.80365	260.30453	165.58147	-528.18506	304.27109	146.68633	-665.19342	129.92131	1853.22314							-517.57751	-72.26343	143.17401	-700.05939	-59.19993	1548.79138	-792.88513	105.10485	1060.07458	-765.84271	-6.72252	207.45326	-795.68256	52.73774	173.92390	-797.30334	173.71808	183.16147	-765.94012	-33.53693	488.53030	-876.00171	-78.61244	141.50562	-699.14099	-46.05581	717.46057	-703.28949	-23.86376	617.81390	-719.21802	-21.43688	567.62134				-707.83142	301.88535	1532.59937	-610.11310	115.40714	1438.43933	-584.27429	227.33835	1064.39319	-590.52319	4.05821	800.86694	-698.76050	85.40220	574.94458	-718.64160	77.84310	216.70506	-653.13910	-60.81665	868.73572	
2	0.020	-595.86047	2.62944	1047.54810	-642.37073	287.63879	874.07227	-588.62170	220.57245	813.43805	-725.86102	256.73993	643.66888	-696.00067	146.43408	575.02655	-672.54645	23.52893	519.76074	-731.02399	250.78525	576.08276	-772.24121	260.40701	502.31589	-678.81940	208.27983	532.69934	-695.17047	119.20872	257.95432	-662.64319	-66.66335	163.77675	-712.99170	153.01402	217.03343	-771.30548	224.01608	204.09653	-622.25861	-77.80347	159.31407	-882.55072	296.24280	144.74985	-675.02625	56.82306	156.44662	-603.06757	20.43177	165.76270	-560.24518	-41.32132	163.68706	-675.50342	171.77934	157.22539	-594.90228	221.66573	173.54803	-666.14777	298.31900	160.71381	-628.20593	305.71896	161.84325	-561.09784	260.48251	165.62590	-528.21582	304.51608	146.71443	-663.49689	130.05632	1853.29639							-517.56061	-72.24361	143.22130	-699.11182	-59.31050	1548.87561	-793.41364	104.97725	1060.38977	-765.70990	-6.77997	207.63399	-795.66022	52.51915	173.97662	-797.03430	173.55652	182.98595	-766.15662	-33.58855	488.75089	-876.03320	-78.59757	141.50241	-699.38104	-45.95806	717.64050	-703.89832	-23.89690	617.70947	-719.28595	-21.71952	567.60406				-707.10095	301.74673	1532.44824	-609.41669	115.25047	1438.14441	-584.86499	227.35114	1064.12903	-590.94232	4.04926	800.81488	-698.70599	85.18123	574.84900	-718.79926	77.88038	216.65710	-653.30475	-60.87219	868.87762	
3	0.040	-596.32532	2.52771	1047.44287	-643.37238	287.97845	874.47620	-589.40826	220.92821	813.46722	-726.35254	256.67026	643.47052	-695.89801	146.70804	574.61591	-672.83356	23.42517	519.67535	-731.45197	250.92146	576.30554	-772.43829	260.44455	502.25858	-679.31305	208.63831	532.60052	-695.40839	119.10200	257.88925	-662.71094	-66.74784	163.85011	-713.29352	152.85538	217.22571	-771.54773	224.01747	204.20535	-622.16577	-77.96066	159.50305	-882.74451	296.35587	144.87044	-675.10187	56.70831	156.40489	-602.77911	20.17254	165.75922	-560.30872	-41.17022	163.56674	-675.67017	171.50876	157.20848	-594.86993	221.65837	173.52679	-666.09711	298.37082	160.81874	-628.42737	305.74161	162.08240	-561.04742	260.48123	165.69040	-528.09119	304.41696	146.83089	-661.04639	130.56822	1853.25061							-517.72260	-72.31587	142.98383	-697.58978	-59.09382	1548.86755	-794.35077	105.03824	1060.73755	-765.98425	-6.74826	207.17473	-795.62402	52.46245	173.85892	-797.17975	173.53717	182.89583	-766.22101	-33.59203	488.69656	-876.13422	-78.54377	141.45628	-699.79803	-45.97211	717.58807	-704.44196	-23.97430	617.86243	-719.69678	-21.71541	567.63361				-706.71454	300.90997	1532.24316	-608.84613	115.22279	1438.17175	-585.69305	227.43945	1064.34131	-591.41418	3.93614	800.77118	-699.11737	85.21870	574.79980	-718.54419	77.59386	215.91809	-653.64923	-61.01319	869.00677	
4	0.060	-596.69202	2.63069	1047.59399	-644.16815	287.93268	874.47687	-590.13715	220.92831	813.57178	-727.04211	256.56235	643.39941	-696.09692	146.55000	575.00885	-672.93646	23.31922	519.70270	-731.69318	251.19611	576.37976	-773.20264	260.50690	502.15695	-679.42804	208.62511	532.65509	-694.92419	119.30038	258.19794	-662.70135	-66.82513	163.78326	-713.29352	152.85538	217.22571	-771.52679	223.99104	204.20375	-622.15088	-78.01227	159.51550	-882.40680	296.07779	144.65472	-675.12701	56.72729	156.78171	-603.13251	20.46847	165.74699	-560.33246	-41.20771	163.40872	-675.96979	171.60889	157.18253	-594.89185	221.80495	173.70648	-666.25452	298.43439	160.81293	-628.33423	305.80020	161.90488	-561.00049	260.47076	165.70015	-528.11536	304.45233	146.53067	-658.50281	130.53011	1853.28381							-517.82190	-72.21370	142.96289	-695.70917	-59.11367	1548.98218	-795.05017	104.86456	1061.03943	-765.97711	-6.83952	207.20888	-795.83691	52.54720	174.03963	-797.30621	173.64288	183.24413	-766.50555	-33.45311	488.74994	-876.02838	-78.54763	141.55200	-700.59808	-46.36545	718.01007	-704.65802	-23.85320	617.84656	-720.21216	-21.70569	567.41956				-705.09308	302.40564	1533.24963	-607.39313	115.18637	1437.93140	-586.25092	227.49017	1064.39966	-591.88757	3.73211	800.84039	-699.55853	85.36790	574.98566	-718.87732	77.45571	216.34406	-654.78992	-60.56418	868.42841	
5	0.080	-597.60297	2.75217	1047.53979	-644.94135	288.17236	874.56903	-590.76080	221.09840	814.03235	-727.68018	256.66992	643.39307	-697.33185	147.38998	574.44183	-673.38574	22.93593	519.64758	-731.87701	251.24344	576.22522	-773.50110	260.64850	502.28659	-679.55774	208.57304	533.13019	-695.19769	119.15779	258.09415	-662.66223	-66.52893	163.69196	-713.22626	153.12042	217.46335	-771.46674	224.04738	204.24120	-622.16577	-77.96066	159.50305	-882.59625	296.22037	144.63243	-675.08032	56.59271	156.54216	-602.89832	20.15921	165.92281	-560.39685	-41.11591	163.51968	-675.51520	171.67625	157.45052	-594.92926	221.74957	173.66331	-666.10284	298.44797	160.64301	-628.51422	305.83875	161.93295	-560.96106	260.48267	165.84142	-528.17456	304.49185	146.35701	-655.35547	130.84322	1853.29480							-517.95593	-72.07469	142.76755	-693.83813	-59.41636	1549.61145	-795.31622	104.79319	1061.19580	-766.35553	-7.07249	207.18234	-795.55212	52.09735	173.71526	-797.29242	173.69197	182.97345	-767.14844	-33.43409	488.57104	-876.12769	-78.51554	141.48257	-701.40497	-46.53031	718.01727	-705.09344	-24.15121	618.13800	-720.84351	-21.41267	567.40533				-703.43658	302.01566	1533.35071	-606.34644	115.59552	1437.78088	-586.60193	227.51007	1064.63464	-592.93042	3.50539	800.69916	-699.73395	85.54617	574.89362	-718.87732	77.45571	216.34406	-655.54321	-60.61650	868.38574	
